<?xml version="1.0" encoding="UTF-8" standalone="no"?>
<!-- Created with Fritzing (http://www.fritzing.org/) -->

<svg
   xmlns:dc="http://purl.org/dc/elements/1.1/"
   xmlns:cc="http://creativecommons.org/ns#"
   xmlns:rdf="http://www.w3.org/1999/02/22-rdf-syntax-ns#"
   xmlns:svg="http://www.w3.org/2000/svg"
   xmlns="http://www.w3.org/2000/svg"
   xmlns:sodipodi="http://sodipodi.sourceforge.net/DTD/sodipodi-0.dtd"
   xmlns:inkscape="http://www.inkscape.org/namespaces/inkscape"
   width="0.664569in"
   x="0in"
   version="1.2"
   y="0in"
   height="0.8in"
   viewBox="0 0 664.569 800"
   id="svg5026"
   inkscape:version="0.91 r"
   sodipodi:docname="red.svg">
  <metadata
     id="metadata5057">
    <rdf:RDF>
      <cc:Work
         rdf:about="">
        <dc:format>image/svg+xml</dc:format>
        <dc:type
           rdf:resource="http://purl.org/dc/dcmitype/StillImage" />
      </cc:Work>
    </rdf:RDF>
  </metadata>
  <defs
     id="defs5055" />
  <sodipodi:namedview
     pagecolor="#ffffff"
     bordercolor="#666666"
     borderopacity="1"
     objecttolerance="10"
     gridtolerance="10"
     guidetolerance="10"
     inkscape:pageopacity="0"
     inkscape:pageshadow="2"
     inkscape:window-width="1293"
     inkscape:window-height="741"
     id="namedview5053"
     showgrid="false"
     inkscape:zoom="13.111111"
     inkscape:cx="34.399112"
     inkscape:cy="31.094835"
     inkscape:window-x="73"
     inkscape:window-y="27"
     inkscape:window-maximized="1"
     inkscape:current-layer="svg5026" />
  <desc
     id="desc5028">Fritzing breadboard generated by brd2svg</desc>
  <g
     id="breadboard"
     transform="matrix(0.50000212,0,0,0.50000352,175.72158,223.14498)">
    <g
       id="icon">
      <g
         transform="translate(100,163.875)"
         id="g5032">
        <g
           id="silkscreen">
          <circle
             cx="236.278"
             cy="239.95799"
             r="232.29201"
             id="circle5035"
             style="fill:#cccccc" />
          <path
             enable-background="new    "
             d="m 4,239.958 c 0,128.278 104,232.292 232.292,232.292 128.292,0 232.292,-103.986 232.292,-232.292 l 0,-3.68056 c 0,128.278 -104,232.292 -232.292,232.292 C 108,468.56944 4,364.56944 4,236.27744"
             id="path5037"
             inkscape:connector-curvature="0"
             style="opacity:0.79000005" />
        </g>
        <g
           id="silkscreen_2_">
          <circle
             cx="236.278"
             cy="224.306"
             r="223.98599"
             id="circle5040"
             style="fill:#002200" />
          <circle
             cx="236.278"
             cy="224.306"
             enable-background="new    "
             r="223.98599"
             id="circle5042"
             style="opacity:0.35" />
          <path
             enable-background="new    "
             d="m 12.2917,228.292 c 0,-123.694 100.292,-223.986 223.986,-223.986 123.694,0 223.972,100.292 223.972,223.986 l 0,-3.97222 c 0,-123.694 -100.292,-223.986 -223.972,-223.986 -123.694,0 -223.986,100.292 -223.986,223.986 l 0,3.97222 z"
             id="path5044"
             inkscape:connector-curvature="0"
             style="opacity:0.23999999;fill:#ffffff" />
          <path
             enable-background="new    "
             d="m 12.2917,231.847 c 0,123.694 100.292,223.972 223.986,223.972 123.694,0 223.972,-100.292 223.972,-223.972 l 0,-7.52778 c 0,123.708 -100.292,223.958 -223.972,223.958 -123.694,0 -223.986,-100.292 -223.986,-223.958 l 0,7.52778 z"
             id="path5046"
             inkscape:connector-curvature="0"
             style="opacity:0.51999996" />
        </g>
        <g
           id="silkscreen_1_">
          <circle
             cx="236.278"
             cy="207.5"
             r="205.472"
             id="circle5049"
             style="fill:#002200" />
          <path
             enable-background="new    "
             d="m 78.6944,182.972 c 11.8194,-76.4167 77.8611,-6.97222 157.583,-6.97222 60.5278,0 113.208,-94.2083 140.208,-44.5 C 349.4993,81.79148 296.8187,48.04148 236.2774,48.04148 156.569,48.0417 90.5139,106.556 78.6944,182.972 Z"
             id="path5051"
             inkscape:connector-curvature="0"
             style="opacity:0.7;fill:#ffffff" />
        </g>
      </g>
    </g>
  </g>
</svg>
